# xmcd CD database file
#
# Track frame offsets:
#	150
#	15429
#	33748
#	50569
#	64103
#	89474
#	104033
#	116168
#	130591
#	146533
#
# Disc length: 2151 seconds
#
# Revision: 0
# Processed by: cddbd v1.5.2PL0 Copyright (c) Steve Scherf et al.
# Submitted via: CDex 1.70beta2
#
DISCID=8d08650a
DTITLE=Mose Allison - Modern Jazz
DYEAR=1957
DGENRE=Jazz
TTITLE0=Town
TTITLE1=Mojo Woman
TTITLE2=Crepuscular Air
TTITLE3=Carnival
TTITLE4=I'll Never Be Free
TTITLE5=Don't Ever Say Goodbye
TTITLE6=Ain't You A Mess
TTITLE7=Trouble In Mind
TTITLE8=Lost Mind
TTITLE9=Parchman Farm
EXTD=YEAR: 1957
EXTT0=
EXTT1=
EXTT2=
EXTT3=
EXTT4=
EXTT5=
EXTT6=
EXTT7=
EXTT8=
EXTT9=
PLAYORDER=
